<?xml version="1.0" encoding="utf-8"?>
<!-- Generator: Adobe Illustrator 24.1.1, SVG Export Plug-In . SVG Version: 6.00 Build 0)  -->
<svg version="1.1" id="Layer_1" xmlns="http://www.w3.org/2000/svg" xmlns:xlink="http://www.w3.org/1999/xlink" x="0px" y="0px"
	 viewBox="0 0 512 512" style="enable-background:new 0 0 512 512;" xml:space="preserve">
<g>
	<path d="M283.8,256L506.2,33.6c7.7-7.7,7.7-20.2,0-27.8c-7.7-7.7-20.2-7.7-27.8,0L256,228.2L33.6,5.8c-7.7-7.7-20.2-7.7-27.8,0
		c-7.7,7.7-7.7,20.2,0,27.8L228.1,256L5.8,478.4c-7.7,7.7-7.7,20.2,0,27.8c3.9,3.9,8.9,5.7,13.9,5.7s10.1-1.9,13.9-5.7L256,283.8
		l222.4,222.4c3.9,3.9,8.9,5.7,13.9,5.7s10.1-1.9,13.9-5.7c7.7-7.7,7.7-20.2,0-27.8L283.8,256L283.8,256z"/>
</g>
</svg>
